<?xml version="1.0" encoding="UTF-8" standalone="no"?><!DOCTYPE svg PUBLIC "-//W3C//DTD SVG 1.1//EN" "http://www.w3.org/Graphics/SVG/1.1/DTD/svg11.dtd"><svg width="100%" height="100%" viewBox="0 0 24 24" version="1.1" xmlns="http://www.w3.org/2000/svg" xmlns:xlink="http://www.w3.org/1999/xlink" xml:space="preserve" style="fill-rule:evenodd;clip-rule:evenodd;stroke-linejoin:round;stroke-miterlimit:1.41421;"><path d="M21.75,0l-19.5,0c-1.237,0 -2.25,1.013 -2.25,2.25l0,19.5c0,1.237 1.013,2.25 2.25,2.25l9.75,0l0,-10.5l-3,0l0,-3l3,0l0,-1.5c0,-2.48 2.02,-4.5 4.5,-4.5l3,0l0,3l-3,0c-0.825,0 -1.5,0.675 -1.5,1.5l0,1.5l4.5,0l-0.75,3l-3.75,0l0,10.5l6.75,0c1.237,0 2.25,-1.013 2.25,-2.25l0,-19.5c0,-1.237 -1.013,-2.25 -2.25,-2.25Z" style="fill:#3c5a9a;fill-rule:nonzero;"/></svg>